<svg id="アウトライン化したもの" xmlns="http://www.w3.org/2000/svg" viewBox="0 0 480 97.3"><defs><style>.cls-1{fill:#d9bbb1;stroke:#4c3422;stroke-miterlimit:10;stroke-width:3.69px;}.cls-2{fill:#4c3422;}</style></defs><title>アートボード 1</title><path d="M16.56,34.61a10.31,10.31,0,0,1-4.39-1.08V31.58h.11a6.3,6.3,0,0,0,4.3,1.68,3.81,3.81,0,0,0,2.33-.63,2.21,2.21,0,0,0,.49-2.94A2.38,2.38,0,0,0,18.14,29l-2.77-.58A4.26,4.26,0,0,1,13,27.17a3.54,3.54,0,0,1,.44-4.92,4.83,4.83,0,0,1,3.22-1,9.87,9.87,0,0,1,4.15,1V24h-.12a6,6,0,0,0-4-1.49,3.35,3.35,0,0,0-2.07.59,1.85,1.85,0,0,0-.79,1.55,2,2,0,0,0,1.79,2.07q1,.2,2.31.49a7,7,0,0,1,1.82.62,3.32,3.32,0,0,1,.89.73,2.79,2.79,0,0,1,.51.94,3.77,3.77,0,0,1,.17,1.16A3.5,3.5,0,0,1,20,33.5,5.19,5.19,0,0,1,16.56,34.61Z"/><path d="M31,34.37H29.58V28.95a4.47,4.47,0,0,0-.48-2.51,1.87,1.87,0,0,0-1.57-.61,4.35,4.35,0,0,0-2.74,1.24v7.31H23.34V20.86h1.45v5A4.94,4.94,0,0,1,28,24.4a2.73,2.73,0,0,1,2.22.94A4.15,4.15,0,0,1,31,28.06Z"/><path d="M35.32,22.73H33.68V21.16h1.64Zm-.09,11.64H33.78v-9.7h1.45Z"/><path d="M39.5,33.86l-.12.52H38V20.86h1.45v4.88a4.86,4.86,0,0,1,3.09-1.34,3.07,3.07,0,0,1,2.61,1.35,6.18,6.18,0,0,1,1,3.69A5.76,5.76,0,0,1,45,33.2a3.62,3.62,0,0,1-2.91,1.44A4.7,4.7,0,0,1,39.5,33.86Zm0-6.89v5.75a5.46,5.46,0,0,0,2.29.58,2.53,2.53,0,0,0,2.13-1,4.55,4.55,0,0,0,.76-2.82q0-3.66-2.51-3.66A4.12,4.12,0,0,0,39.49,27Z"/><path d="M55.93,34.37H54.48V33.21a5.1,5.1,0,0,1-3.24,1.43A2.72,2.72,0,0,1,49,33.7,4.13,4.13,0,0,1,48.24,31V24.67h1.45v5.45a4.34,4.34,0,0,0,.48,2.48,1.88,1.88,0,0,0,1.57.61A4.35,4.35,0,0,0,54.48,32v-7.3h1.45Z"/><path d="M72.69,72.36a5.56,5.56,0,0,1-4.36-1.74,7.12,7.12,0,0,1-1.59-4.93,7.13,7.13,0,0,1,1.59-4.93A5.53,5.53,0,0,1,72.65,59a8.58,8.58,0,0,1,4.1,1.14V62h-.12a6.13,6.13,0,0,0-4.09-1.68,3.77,3.77,0,0,0-3.1,1.43,6.13,6.13,0,0,0-1.13,3.95,6,6,0,0,0,1.18,3.91,3.82,3.82,0,0,0,3.1,1.4,5.69,5.69,0,0,0,2-.36,6.73,6.73,0,0,0,2.07-1.37h.12v1.89a12.12,12.12,0,0,1-2.45,1A7.55,7.55,0,0,1,72.69,72.36Z"/><path d="M84.34,72.09V71a7,7,0,0,1-1.91,1.12,5.07,5.07,0,0,1-1.52.24,2.75,2.75,0,0,1-2.07-.85A3,3,0,0,1,78,69.33a2.9,2.9,0,0,1,1.21-2.55q1.22-.86,5.1-1v-.29a1.85,1.85,0,0,0-.58-1.5,3.2,3.2,0,0,0-2-.48,7.15,7.15,0,0,0-2.84.7h-.07V62.61a10.8,10.8,0,0,1,3-.45,4.67,4.67,0,0,1,3,.79,3.07,3.07,0,0,1,1,2.49l0,6.64Zm0-2.31V67a9.53,9.53,0,0,0-3.95.72,1.75,1.75,0,0,0-.87,1.55q0,1.74,2,1.74A4.42,4.42,0,0,0,84.33,69.78Z"/><path d="M93.42,60h0A4.22,4.22,0,0,0,92,59.76a2,2,0,0,0-1.58.55A2.7,2.7,0,0,0,90,62.08v.28h2.85v1.24H90l0,8.46H88.61l0-8.46H87.52V62.37h1.06V62a3.77,3.77,0,0,1,.81-2.62,3,3,0,0,1,2.35-.92,9.12,9.12,0,0,1,1.66.17Z"/><path d="M98.36,72.26A4.8,4.8,0,0,1,94.76,71a5.07,5.07,0,0,1-1.29-3.7,5.55,5.55,0,0,1,1.21-3.79,4.11,4.11,0,0,1,3.25-1.41,3.62,3.62,0,0,1,2.86,1.14,4.79,4.79,0,0,1,1,3.28v.83l-6.87,0A3.71,3.71,0,0,0,95.86,70a3.33,3.33,0,0,0,2.52.93,5.43,5.43,0,0,0,3.19-1.17h.07v1.64A9,9,0,0,1,98.36,72.26Zm-3.42-6.07,5.46,0q-.08-2.89-2.55-2.88a2.75,2.75,0,0,0-2,.78A3.29,3.29,0,0,0,94.94,66.19Z"/><path class="cls-1" d="M102.16,34.37c-.29,10.06-8.46,22.15-21.25,22.15-12.57,0-21.09-11.68-21.25-22.15C59.53,25.06,66,18.78,66.9,18a21,21,0,0,1,14-5.76c11.18,0,17.61,9.78,18.14,10.62A21.8,21.8,0,0,1,102.16,34.37Z"/><path class="cls-2" d="M80.82,51.19A59.08,59.08,0,0,1,63.4,48.38V43.31h.43a33.28,33.28,0,0,0,17.06,4.38A21.33,21.33,0,0,0,90.12,46q3.35-1.64,3.35-4.36A4.07,4.07,0,0,0,92,38.39a11.19,11.19,0,0,0-5-1.86L76.11,35q-6.11-.87-9.27-3.16a7,7,0,0,1-3.15-5.95q0-4.15,4.9-6.85t12.78-2.7a56.92,56.92,0,0,1,16.47,2.48v4.89h-.46a31.89,31.89,0,0,0-16-3.86,18.68,18.68,0,0,0-8.22,1.54Q70,22.93,70,25.43q0,4.17,7.13,5.38,4.12.51,9.17,1.28a38.37,38.37,0,0,1,7.22,1.61,13.53,13.53,0,0,1,3.53,1.91,7.12,7.12,0,0,1,2,2.43,6.74,6.74,0,0,1,.67,3q0,4.38-5.2,7.26T80.82,51.19Z"/><path class="cls-1" d="M63.92,60c0,12.23-9.44,22.19-21.17,22.23S21.47,72.38,21.43,60.15,30.87,38,42.6,37.92,63.88,47.76,63.92,60Z"/><path class="cls-2" d="M44.77,76.08q-10.74,0-16.82-4a12.82,12.82,0,0,1-6.08-11.33A12.88,12.88,0,0,1,28,49.45q6.18-4.12,16.75-4.12A51.36,51.36,0,0,1,60.61,48v4.31h-.44a33.7,33.7,0,0,0-15.75-3.88q-7.56,0-12,3.26A10.62,10.62,0,0,0,28,60.74a10.47,10.47,0,0,0,4.49,9Q37,73,44.48,73a35.94,35.94,0,0,0,7.69-.8,31.59,31.59,0,0,0,8-3.12h.44v4.33a68.49,68.49,0,0,1-9.48,2.25A48.09,48.09,0,0,1,44.77,76.08Z"/><path d="M121.7,72.52a39.44,39.44,0,0,1-16.23-3.84V61.77h.4a23.84,23.84,0,0,0,15.9,6q5.48,0,8.6-2.24a7.61,7.61,0,0,0,1.8-10.44,8.87,8.87,0,0,0-4.61-2.54l-10.23-2.07q-5.69-1.19-8.63-4.31A11.36,11.36,0,0,1,105.75,38a11.51,11.51,0,0,1,4.57-9.35Q114.88,25,122.22,25a37.8,37.8,0,0,1,15.35,3.38V35h-.43a22.61,22.61,0,0,0-14.92-5.27,12.79,12.79,0,0,0-7.66,2.1,6.5,6.5,0,0,0-2.91,5.51q0,5.69,6.64,7.34,3.84.7,8.54,1.75a26.56,26.56,0,0,1,6.73,2.19,12.23,12.23,0,0,1,3.29,2.6,9.82,9.82,0,0,1,1.89,3.32,12.86,12.86,0,0,1,.62,4.11,12.22,12.22,0,0,1-4.84,9.9Q129.68,72.52,121.7,72.52Z"/><path d="M175.2,71.7h-5.36V52.46q0-6.73-1.77-8.91t-5.82-2.18q-4.75,0-10.14,4.42V71.7h-5.36V23.77h5.36V41.4q6-5.09,12-5.09,5.33,0,8.22,3.33t2.89,9.64Z"/><path d="M191.07,30.41H185V24.84h6.06Zm-.33,41.29h-5.36V37.29h5.36Z"/><path d="M206.54,69.87l-.46,1.83h-4.93V23.77h5.36v17.3q5.88-4.75,11.42-4.75a11.5,11.5,0,0,1,9.67,4.78q3.61,4.78,3.61,13.09t-4.35,13.34a13.61,13.61,0,0,1-10.78,5.12A17.91,17.91,0,0,1,206.54,69.87Zm0-24.45v20.4a20.88,20.88,0,0,0,8.46,2,9.5,9.5,0,0,0,7.87-3.53q2.82-3.53,2.82-10,0-13-9.29-13Q211.44,41.37,206.51,45.42Z"/><path d="M267.28,71.7h-5.36V67.56q-6.24,5.09-12,5.08-5.39,0-8.25-3.33t-2.86-9.55V37.29h5.36V56.63q0,6.64,1.78,8.8t5.8,2.16q4.75,0,10.14-4.42V37.29h5.36Z"/><path d="M318.44,72.52q-10.29,0-16.12-6.21T296.49,48.8q0-11.08,5.92-17.45T318.47,25a32.8,32.8,0,0,1,15.16,4.11v6.67h-.43q-7.16-6-15.1-6a14.21,14.21,0,0,0-11.48,5q-4.23,5-4.23,14t4.31,13.9a14.37,14.37,0,0,0,11.46,5,22,22,0,0,0,7.37-1.23,25,25,0,0,0,7.67-4.83h.43v6.7a45.87,45.87,0,0,1-9.09,3.47A29,29,0,0,1,318.44,72.52Z"/><path d="M361.53,71.7V67.86a26,26,0,0,1-7.06,3.94,19.4,19.4,0,0,1-5.63.84,10.37,10.37,0,0,1-7.64-3,10.48,10.48,0,0,1-3-7.73q0-6,4.52-9t18.86-3.61v-1a6.43,6.43,0,0,0-2.13-5.31q-2.13-1.72-7.49-1.72a27.39,27.39,0,0,0-10.5,2.44h-.24V38a41.63,41.63,0,0,1,11-1.55q7.64,0,11.19,2.85t3.55,8.85V71.7Zm0-8.19v-10Q350.17,54,346.93,56a6.16,6.16,0,0,0-3.24,5.5q0,6.18,7.49,6.18Q356.26,67.71,361.53,63.51Z"/><path d="M395.24,29h-.18a16.28,16.28,0,0,0-5-.91q-4.11,0-5.85,1.92t-1.74,6.3v1H393v4.38H382.69v30h-5.36v-30H373.4V37.29h3.93V36q0-6.06,3-9.29t8.71-3.23a35,35,0,0,1,6.15.61Z"/><path d="M413.38,72.49q-8.59,0-13.32-4.64t-4.73-13.14q0-8.44,4.54-13.41a15.49,15.49,0,0,1,12-5q6.82,0,10.58,4.08T426.23,52v3H400.81q0,6.21,3.37,9.55t9.3,3.33a20.59,20.59,0,0,0,11.81-4.11h.24v5.82Q418.19,72.49,413.38,72.49ZM400.81,50.93H421q-.24-10.26-9.41-10.26a10.38,10.38,0,0,0-7.49,2.74A11.4,11.4,0,0,0,400.81,50.93Z"/></svg>